<svg xmlns="http://www.w3.org/2000/svg" width="2400" height="1500" viewBox="0 0 2400 1500" role="img" aria-label="Abstract neon finance command center">
  <defs>
    <radialGradient id="pinkGlow" cx="72%" cy="18%" r="58%">
      <stop offset="0%" stop-color="#ff2aa1" stop-opacity="0.46"/>
      <stop offset="42%" stop-color="#ff2aa1" stop-opacity="0.14"/>
      <stop offset="100%" stop-color="#030408" stop-opacity="0"/>
    </radialGradient>
    <radialGradient id="cyanGlow" cx="16%" cy="72%" r="62%">
      <stop offset="0%" stop-color="#17f7ff" stop-opacity="0.42"/>
      <stop offset="46%" stop-color="#17f7ff" stop-opacity="0.12"/>
      <stop offset="100%" stop-color="#030408" stop-opacity="0"/>
    </radialGradient>
    <linearGradient id="screen" x1="0" y1="0" x2="1" y2="1">
      <stop offset="0%" stop-color="#101a2b" stop-opacity="0.92"/>
      <stop offset="100%" stop-color="#050710" stop-opacity="0.96"/>
    </linearGradient>
    <linearGradient id="cyanLine" x1="0" y1="0" x2="1" y2="0">
      <stop offset="0%" stop-color="#17f7ff" stop-opacity="0"/>
      <stop offset="45%" stop-color="#17f7ff"/>
      <stop offset="100%" stop-color="#aaff1e"/>
    </linearGradient>
    <linearGradient id="pinkLine" x1="0" y1="0" x2="1" y2="0">
      <stop offset="0%" stop-color="#ff2aa1"/>
      <stop offset="100%" stop-color="#17f7ff"/>
    </linearGradient>
    <filter id="softGlow" x="-80%" y="-80%" width="260%" height="260%">
      <feGaussianBlur stdDeviation="14" result="blur"/>
      <feMerge>
        <feMergeNode in="blur"/>
        <feMergeNode in="SourceGraphic"/>
      </feMerge>
    </filter>
    <pattern id="grid" width="72" height="72" patternUnits="userSpaceOnUse">
      <path d="M72 0H0V72" fill="none" stroke="#f4fbff" stroke-opacity="0.055" stroke-width="1"/>
    </pattern>
    <pattern id="scan" width="8" height="8" patternUnits="userSpaceOnUse">
      <path d="M0 0H8" stroke="#ffffff" stroke-opacity="0.05"/>
    </pattern>
  </defs>

  <rect width="2400" height="1500" fill="#030408"/>
  <rect width="2400" height="1500" fill="url(#pinkGlow)"/>
  <rect width="2400" height="1500" fill="url(#cyanGlow)"/>
  <rect width="2400" height="1500" fill="url(#grid)"/>

  <path d="M0 1180C298 1032 500 1112 782 974C1110 814 1275 422 1598 390C1844 366 2106 544 2400 408V1500H0Z" fill="#070911" opacity="0.86"/>
  <path d="M0 1230C330 1068 563 1146 832 995C1138 823 1295 517 1602 472C1876 432 2090 610 2400 488" fill="none" stroke="url(#cyanLine)" stroke-width="7" stroke-linecap="round" opacity="0.82" filter="url(#softGlow)"/>
  <path d="M0 1320C388 1150 642 1210 956 1040C1268 870 1360 640 1620 620C1886 599 2088 740 2400 630" fill="none" stroke="url(#pinkLine)" stroke-width="4" stroke-linecap="round" opacity="0.7" filter="url(#softGlow)"/>

  <g transform="translate(1030 238) rotate(-5)">
    <rect width="750" height="460" rx="34" fill="url(#screen)" stroke="#17f7ff" stroke-opacity="0.36" stroke-width="2"/>
    <rect x="42" y="48" width="202" height="96" rx="20" fill="#17f7ff" fill-opacity="0.1" stroke="#17f7ff" stroke-opacity="0.42"/>
    <rect x="274" y="48" width="202" height="96" rx="20" fill="#ff2aa1" fill-opacity="0.1" stroke="#ff2aa1" stroke-opacity="0.42"/>
    <rect x="506" y="48" width="202" height="96" rx="20" fill="#aaff1e" fill-opacity="0.1" stroke="#aaff1e" stroke-opacity="0.38"/>
    <path d="M56 348C120 270 176 306 236 246C306 176 373 300 438 236C520 156 592 226 694 168" fill="none" stroke="#17f7ff" stroke-width="8" stroke-linecap="round" filter="url(#softGlow)"/>
    <path d="M58 386C166 354 242 406 336 338C438 264 512 338 694 272" fill="none" stroke="#ff2aa1" stroke-width="5" stroke-linecap="round" opacity="0.74"/>
    <g fill="#f4fbff" opacity="0.72">
      <circle cx="58" cy="348" r="8"/>
      <circle cx="236" cy="246" r="8"/>
      <circle cx="438" cy="236" r="8"/>
      <circle cx="694" cy="168" r="8"/>
    </g>
  </g>

  <g transform="translate(520 498) rotate(4)">
    <rect width="520" height="330" rx="30" fill="#080d18" fill-opacity="0.9" stroke="#ffffff" stroke-opacity="0.16"/>
    <circle cx="112" cy="156" r="74" fill="none" stroke="#17f7ff" stroke-width="18" stroke-opacity="0.9" filter="url(#softGlow)"/>
    <path d="M112 82A74 74 0 0 1 181 182" fill="none" stroke="#aaff1e" stroke-width="18" stroke-linecap="round"/>
    <rect x="240" y="82" width="190" height="20" rx="10" fill="#17f7ff" fill-opacity="0.76"/>
    <rect x="240" y="138" width="238" height="20" rx="10" fill="#ff2aa1" fill-opacity="0.68"/>
    <rect x="240" y="194" width="144" height="20" rx="10" fill="#aaff1e" fill-opacity="0.74"/>
    <rect x="64" y="272" width="390" height="2" fill="#ffffff" opacity="0.14"/>
  </g>

  <g transform="translate(1510 780) rotate(7)" opacity="0.94">
    <rect width="454" height="282" rx="26" fill="#080d18" fill-opacity="0.86" stroke="#ff2aa1" stroke-opacity="0.34"/>
    <path d="M54 216L118 154L184 186L266 98L326 132L398 66" fill="none" stroke="#ff2aa1" stroke-width="7" stroke-linecap="round" filter="url(#softGlow)"/>
    <path d="M54 92H398M54 142H398M54 192H398" stroke="#ffffff" stroke-opacity="0.08"/>
    <path d="M86 232V122M160 232V166M234 232V96M308 232V146M382 232V76" stroke="#17f7ff" stroke-width="14" stroke-linecap="round" opacity="0.72"/>
  </g>

  <g filter="url(#softGlow)">
    <circle cx="464" cy="366" r="8" fill="#17f7ff"/>
    <circle cx="1880" cy="314" r="10" fill="#ff2aa1"/>
    <circle cx="2040" cy="910" r="8" fill="#aaff1e"/>
    <circle cx="820" cy="1080" r="9" fill="#17f7ff"/>
    <path d="M464 366C654 236 754 312 1030 308" fill="none" stroke="#17f7ff" stroke-opacity="0.45" stroke-width="3"/>
    <path d="M1780 448C1962 512 2050 684 2040 910" fill="none" stroke="#ff2aa1" stroke-opacity="0.42" stroke-width="3"/>
  </g>

  <rect width="2400" height="1500" fill="url(#scan)" opacity="0.42"/>
  <rect width="2400" height="1500" fill="none" stroke="#ffffff" stroke-opacity="0.08" stroke-width="2"/>
</svg>
